# xmcd CD database file
#
# Track frame offsets:
#	183
#	13458
#	37658
#	51070
#	75933
#	109715
#	148658
#	171613
#	188578
#	202908
#	220398
#	240838
#	263998
#
# Disc length: 3900 seconds
#
# Revision: 2
# Processed by: cddbd v1.4b41PL1 Copyright (c) Steve Scherf et al.
# Submitted via: Feurio! 1.51.15ß - http://www.feurio.com
#
DISCID=aa0f3a0d
DTITLE=Willie-Le-Truc  - Unbekannte CD #AA0F3A0D05A3F62B
DYEAR=1900
DGENRE=
TTITLE0=O majpr tocador
TTITLE1=Sepp
TTITLE2=Piriri
TTITLE3=Efin
TTITLE4=Free Willie
TTITLE5=The Hall
TTITLE6=Czardas für Imre
TTITLE7=Arpita'sRosentraum
TTITLE8=Hinterm Ochsenberg
TTITLE9=Am Fuße des Makalu
TTITLE10=Un kumt di Sun
TTITLE11=A Hejmlecher Bulgar
TTITLE12=Terbang dan menari
EXTD=
EXTT0=
EXTT1=
EXTT2=
EXTT3=
EXTT4=
EXTT5=
EXTT6=
EXTT7=
EXTT8=
EXTT9=
EXTT10=
EXTT11=
EXTT12=
PLAYORDER=
